/* XPM */
static const char *sample_xpm[] = {
/* columns rows colors chars-per-pixel */
"32 32 3 1",
"  c black",
"! c None",
"# c white",
"!!!!!!!!  ## ##### #### !!!!!!!!",
"!!!!!!!! ### ####  #### !!!!!!!!",
"!!!!!!!!  ##  ### ####  !!!!!!!!",
"!!!!!!!!  ### ##  #### !!!!!!!!!",
"!!!!!!!!!  ## ##  ### !!!!!!!!!!",
"!!!!!!!!   ########## !!!!!!!!!!",
"!!!!!!!   ##########   !!!!!!!!!",
"!!!!!!  ##############   !!!!!!!",
"!!!!   ######## ########       !",
"!!!!  ######     ########      !",
"!!!  ######        #######      ",
"!!  ######    # #   ######      ",
"!!  ######  ### ##   ######     ",
"!  ######  #### ###  ######     ",
"! #######  #### ############    ",
"  #######   ### ############    ",
"  ########   ## ############    ",
" ##########       ##########    ",
" ###########       #####        ",
" #############  #   ###         ",
" ############## ##   ##         ",
" ############## ###  ###        ",
"  #######   ### ###  ###        ",
"!  ######   ### ###  #######    ",
"!  #######   ## ##   ######  !!!",
"!! ########     #   ####### !!!!",
"!!  ########       #######  !!!!",
"!!!  ########    ######### !!!!!",
"!!!!  ######### #########  !!!!!",
"!!!!!  ################   !!!!!!",
"!!!!!!   #############  !!!!!!!!",
"!!!!!!!!   #########   !!!!!!!!!"
};
